<?xml version="1.0" encoding="utf-8"?>
<!-- Generator: Adobe Illustrator 26.3.1, SVG Export Plug-In . SVG Version: 6.00 Build 0)  -->
<svg version="1.1" xmlns="http://www.w3.org/2000/svg" xmlns:xlink="http://www.w3.org/1999/xlink" x="0px" y="0px"
	 viewBox="0 0 678 676" style="enable-background:new 0 0 678 676;" xml:space="preserve">
<style type="text/css">
	.st0{fill:#FFFFFF;stroke:#000000;stroke-width:40;stroke-miterlimit:10;}
	.st1{fill:none;stroke:#000000;stroke-width:5;stroke-miterlimit:10;}
	.st2{stroke:#000000;stroke-miterlimit:10;}
	.st3{fill:#FFFFFF;stroke:#000000;stroke-miterlimit:10;}
	.st4{fill:none;stroke:#000000;stroke-width:13;stroke-miterlimit:10;}
	.st5{fill:none;stroke:#000000;stroke-width:14;stroke-miterlimit:10;}
</style>
<g id="Слой_1">
	<path class="st0" d="M19.54,395.13c0-17.1,13.86-30.96,30.96-30.96h114.72h114.74c17.1,0,30.96,13.86,30.96,30.96V625.3
		c0,17.1-13.86,30.96-30.96,30.96H50.5c-17.1,0-30.96-13.86-30.96-30.96V395.13z"/>
	<polygon points="88.5,416.15 54,493.55 70.81,493.55 70.73,548.69 106.22,548.69 106.22,493.13 123,493.13 	"/>
	<rect x="70.73" y="557.75" width="35.41" height="20.93"/>
	<rect x="70.73" y="588.56" width="35.41" height="15.29"/>
	<path class="st1" d="M112,601h159.68L265,558c0,0-3-10-15-18l-33-11l-6.5,24.5l-15-18h-7l-16,18l-5.67-24.5l-31.33,10.5
		c0,0-13,6-15,14L110.32,601H112z"/>
	<line class="st1" x1="191.5" y1="548.6" x2="191.5" y2="601"/>
	<line class="st1" x1="138.74" y1="601" x2="142.5" y2="570.5"/>
	<line class="st1" x1="166.5" y1="523.5" x2="166.5" y2="529.11"/>
	<line class="st1" x1="216.5" y1="522.5" x2="216.5" y2="531"/>
	<path class="st1" d="M160.14,531.24v32.5v2.3c0,0-8.64,0.46-8.64,9.46s8.64,9.69,8.64,9.69s9.36,0.31,9.36-9.69
		s-9.36-9.46-9.36-9.46"/>
	<line class="st1" x1="244.53" y1="601" x2="241.5" y2="570.5"/>
	<path class="st1" d="M223,531v27.6v2.49l-14.5,6.41c0,0-4,1-4,9s2,10,6,11h5"/>
	<path class="st1" d="M223,561.09l15.5,7.41c0,0,3,2,3,9s-6,10-6,10h-6.22"/>
	<path class="st1" d="M180.5,522.5h21.97l21.03-20c0,0,6-10,6-12v-23h-12.22c0,0-11.78-3-15.78-6c0,0-10,5-17,5h-30v25.14
		c0,0,1,8.86,5,10.86L180.5,522.5z"/>
	<path class="st1" d="M154.5,491.64c0,0-12.5,1.36-12.5-12.64s12-12,12-12"/>
	<path class="st1" d="M229.5,491.38c0,0,12-0.88,12-11.88s-12-12-12-12"/>
	<path class="st1" d="M147.5,466.5v-15.61c0,0,7-36.14,44-36.77s43,37.37,43,37.37v16.84"/>
</g>
<g id="Слой_2">
	<path class="st0" d="M366.54,50.13c0-17.1,13.86-30.96,30.96-30.96h114.72h114.74c17.1,0,30.96,13.86,30.96,30.96V280.3
		c0,17.1-13.86,30.96-30.96,30.96H397.5c-17.1,0-30.96-13.86-30.96-30.96V50.13z"/>
	<path d="M411,84c0,0,58-30.02,96.5,10.49v125.62c0,0-38.5-35.11-96.5-10.11V84z"/>
	<path d="M613.44,84.72c0,0-58-30.02-96.5,10.49v125.62c0,0,38.5-35.11,96.5-10.11V84.72z"/>
	<path d="M411,220.83c0,0,60-31.83,102,17.17c0,0,31.88-48.34,100.44-17.17V238c0,0-54-29.21-101.22,19.89
		c0,0-42.22-46.23-101.22-19.06V220.83z"/>
</g>
<g id="Слой_3">
	<path class="st0" d="M19.54,50.13c0-17.1,13.86-30.96,30.96-30.96h114.72h114.74c17.1,0,30.96,13.86,30.96,30.96V280.3
		c0,17.1-13.86,30.96-30.96,30.96H50.5c-17.1,0-30.96-13.86-30.96-30.96V50.13z"/>
	<path class="st2" d="M163.18,274.84c0,0,99.27-35.96,94.33-181.83c0,0-52.67,7.73-94.33-43.11c0,0-26.82,43.11-91.1,43.11
		C72.07,93.01,58.96,231.67,163.18,274.84z"/>
	<path class="st3" d="M163.18,74.2c0,0-28.06,29.93-77.5,34.88c0,0,0.48,104.66,77.5,145.66c0,0,77.02-35.64,77.02-146.9
		C240.2,107.84,190,104.84,163.18,74.2z"/>
	<path class="st2" d="M135.44,167.47c0.73,2.75,2.77,7.14,8.49,10.06c0.57,0.29,1.14-0.39,0.74-0.89c-1.82-2.25-4.18-6.42-4.5-13.21
		c0-0.04,0-0.07,0-0.11c0.12-0.83,1.87-11.43,10.2-17.35c0.03-0.02,0.05-0.04,0.08-0.05c0.71-0.36,11.2-6.09,10.3-26.68
		c-0.02-0.54,0.63-0.82,1-0.44c3.44,3.49,13.87,15.32,14.29,30.73c0,0,0.72,6.85-2.62,11.75c-0.32,0.47,0.17,1.08,0.71,0.87
		c2.65-1.03,7.26-4.36,6.29-14.99c-0.06-0.6,0.72-0.89,1.07-0.39c3.17,4.55,10.86,16.68,10.45,26.86c0,0,0.49,16.73-17.32,20.78
		c-0.46,0.11-0.85-0.36-0.67-0.8c0.76-1.8,2.12-5.62,1.58-8.66c-0.09-0.49-0.73-0.63-1.03-0.23c-0.22,0.3-0.54,0.65-0.98,1.04
		c-0.52,0.47-1.3-0.13-0.98-0.75c0.58-1.11,0.93-2.34,0.49-3.33c0,0-4.04-7.32-6.61-8.52c-0.08-0.04-0.15-0.09-0.2-0.16
		c-0.45-0.59-2.48-3.54-2.34-8.74c0.02-0.55-0.68-0.81-1.04-0.39c-1.95,2.3-5.64,7.38-5.26,12.31c0,0-0.28,1.94-0.02,3.58
		c0.09,0.56-0.6,0.91-0.99,0.51c-0.67-0.67-1.33-1.72-1.38-3.25c-0.02-0.59-0.78-0.82-1.09-0.31c-1.47,2.39-3.51,6.62-3.18,11.27
		c0,0-0.63,2.84,1.31,5.63c0.29,0.41-0.05,0.98-0.55,0.91c-4.55-0.59-18.51-3.87-17.68-21.87c0-0.03,0-0.05,0-0.08
		c-0.04-0.29-0.26-2.36,0.29-5.05C134.41,166.91,135.28,166.87,135.44,167.47z"/>
	<circle class="st4" cx="162.97" cy="157.99" r="50.5"/>
	<line class="st5" x1="127.09" y1="129.79" x2="199.88" y2="184.65"/>
</g>
<g id="Слой_4">
	<path class="st0" d="M365.54,397.13c0-17.1,13.86-30.96,30.96-30.96h114.72h114.74c17.1,0,30.96,13.86,30.96,30.96V627.3
		c0,17.1-13.86,30.96-30.96,30.96H396.5c-17.1,0-30.96-13.86-30.96-30.96V397.13z"/>
	<path d="M446.07,535.56h22.31c3.44,0,6.28-2.71,6.42-6.15l4.53-104.85c0.16-3.66-2.76-6.71-6.42-6.71h-33.42
		c-3.71,0-6.65,3.13-6.42,6.83l6.58,104.85C439.86,532.92,442.67,535.56,446.07,535.56z"/>
	<circle cx="456.61" cy="585.32" r="24.61"/>
	<circle cx="553.99" cy="586.39" r="24.61"/>
	<path d="M523.12,459.66l-18.24-15.96c-2.31-2.02-2.54-5.51-0.54-7.84c6.74-7.86,24.39-23.37,58.74-23.37
		c46.01,0,56.71,28.89,56.71,28.89s11.77,25.68-7.49,47.08c0,0-11.77,11.77-19.26,14.98c-7.49,3.21-13.91,11.77-13.91,11.77
		s-4.18,4.18-5.15,16.25c-0.23,2.9-2.64,5.15-5.55,5.15h-28.89c-3.02,0-5.51-2.41-5.56-5.43c-0.21-11.28,1.44-36.87,20.01-45.01
		c0,0,24.08-12.69,23.01-25.53c0,0,1.07-12.84-17.12-13.91c0,0-8.65-3.84-29.59,13.05C528.18,461.49,525.16,461.44,523.12,459.66z"
		/>
</g>
</svg>
